<svg width="154" height="51" viewBox="0 0 154 51" fill="none" xmlns="http://www.w3.org/2000/svg">
<path d="M82.0977 25.9355C82.0977 28.0514 81.7363 29.6237 81.0137 30.6523C80.291 31.681 79.1615 32.1953 77.625 32.1953C76.1081 32.1953 74.985 31.694 74.2559 30.6914C73.5267 29.6823 73.1491 28.1784 73.123 26.1797V23.7676C73.123 21.6777 73.4844 20.125 74.207 19.1094C74.9297 18.0938 76.0625 17.5859 77.6055 17.5859C79.1354 17.5859 80.2617 18.0775 80.9844 19.0605C81.707 20.0371 82.0781 21.5475 82.0977 23.5918V25.9355ZM80.291 23.4648C80.291 21.9349 80.0762 20.8216 79.6465 20.125C79.2168 19.4219 78.5365 19.0703 77.6055 19.0703C76.681 19.0703 76.0072 19.4186 75.584 20.1152C75.1608 20.8118 74.9427 21.8828 74.9297 23.3281V26.2188C74.9297 27.7552 75.151 28.8913 75.5938 29.627C76.043 30.3561 76.7201 30.7207 77.625 30.7207C78.5169 30.7207 79.1777 30.3757 79.6074 29.6855C80.0436 28.9954 80.2715 27.9082 80.291 26.4238V23.4648Z" fill="#0E0A13"/>
<circle cx="25" cy="25" r="24.5" stroke="#051F51"/>
<rect x="14" y="24" width="22" height="2" fill="#051F51"/>
<circle cx="129" cy="26" r="24.5" stroke="#051F51"/>
<rect x="118" y="25" width="22" height="2" fill="#051F51"/>
<rect x="128" y="37" width="22" height="2" transform="rotate(-90 128 37)" fill="#051F51"/>
</svg>
